HIERARCHY
ROOT hip
{
  OFFSET 0 0 0
  CHANNELS 6 Xposition Yposition Zposition Zrotation Yrotation Xrotation
  JOINT abdomen
  {
    OFFSET 0 20.6881 -0.73152
    CHANNELS 3 Zrotation Xrotation Yrotation
    JOINT chest
    {
      OFFSET 0 11.7043 -0.48768
      CHANNELS 3 Zrotation Xrotation Yrotation
      JOINT neck
      {
        OFFSET 0 22.1894 -2.19456
        CHANNELS 3 Zrotation Xrotation Yrotation
        JOINT head
        {
          OFFSET -0.24384 7.07133 1.2192
          CHANNELS 3 Zrotation Xrotation Yrotation
          JOINT leftEye
          {
            OFFSET 4.14528 8.04674 8.04672
            CHANNELS 3 Zrotation Xrotation Yrotation
            End Site
            {
              OFFSET 1 0 0
            }
          }
          JOINT rightEye
          {
            OFFSET -3.6576 8.04674 8.04672
            CHANNELS 3 Zrotation Xrotation Yrotation
            End Site
            {
              OFFSET 1 0 0
            }
          }
        }
      }
      JOINT rCollar
      {
        OFFSET -2.68224 19.2634 -4.8768
        CHANNELS 3 Zrotation Xrotation Yrotation
        JOINT rShldr
        {
          OFFSET -8.77824 -1.95073 1.46304
          CHANNELS 3 Zrotation Xrotation Yrotation
          JOINT rForeArm
          {
            OFFSET -28.1742 -1.7115 0.48768
            CHANNELS 3 Zrotation Xrotation Yrotation
            JOINT rHand
            {
              OFFSET -22.5879 0.773209 7.07136
              CHANNELS 3 Zrotation Xrotation Yrotation
              JOINT rThumb1
              {
                OFFSET -1.2192 -0.487915 3.41376
                CHANNELS 3 Zrotation Xrotation Yrotation
                JOINT rThumb2
                {
                  OFFSET -3.37035 -0.52449 3.41376
                  CHANNELS 3 Zrotation Xrotation Yrotation
                  End Site
                  {
                    OFFSET -1.78271 -1.18214 1.43049
                  }
                }
              }
              JOINT rIndex1
              {
                OFFSET -7.75947 0.938293 5.60832
                CHANNELS 3 Zrotation Xrotation Yrotation
                JOINT rIndex2
                {
                  OFFSET -2.54057 -0.884171 1.56538
                  CHANNELS 3 Zrotation Xrotation Yrotation
                  End Site
                  {
                    OFFSET -1.62519 -0.234802 1.16502
                  }
                }
              }
              JOINT rMid1
              {
                OFFSET -8.24714 1.18213 3.41376
                CHANNELS 3 Zrotation Xrotation Yrotation
                JOINT rMid2
                {
                  OFFSET -3.10165 -0.590103 1.0647
                  CHANNELS 3 Zrotation Xrotation Yrotation
                  End Site
                  {
                    OFFSET -2.48547 -0.328903 0.83742
                  }
                }
              }
              JOINT rRing1
              {
                OFFSET -8.82822 0.546677 1.51678
                CHANNELS 3 Zrotation Xrotation Yrotation
                JOINT rRing2
                {
                  OFFSET -2.60934 -0.819778 -0.0198488
                  CHANNELS 3 Zrotation Xrotation Yrotation
                  End Site
                  {
                    OFFSET -2.33842 -0.294052 0.168128
                  }
                }
              }
              JOINT rPinky1
              {
                OFFSET -8.27202 -0.0477905 -0.4584
                CHANNELS 3 Zrotation Xrotation Yrotation
                JOINT rPinky2
                {
                  OFFSET -1.82734 -0.647385 -0.700984
                  CHANNELS 3 Zrotation Xrotation Yrotation
                  End Site
                  {
                    OFFSET -1.69225 -0.51767 -0.607171
                  }
                }
              }
            }
          }
        }
      }
      JOINT lCollar
      {
        OFFSET 2.68224 19.2634 -4.8768
        CHANNELS 3 Zrotation Xrotation Yrotation
        JOINT lShldr
        {
          OFFSET 8.77824 -1.95073 1.46304
          CHANNELS 3 Zrotation Xrotation Yrotation
          JOINT lForeArm
          {
            OFFSET 28.1742 -1.7115 0.48768
            CHANNELS 3 Zrotation Xrotation Yrotation
            JOINT lHand
            {
              OFFSET 22.5879 0.773209 7.07136
              CHANNELS 3 Zrotation Xrotation Yrotation
              JOINT lThumb1
              {
                OFFSET 1.2192 -0.487915 3.41376
                CHANNELS 3 Zrotation Xrotation Yrotation
                JOINT lThumb2
                {
                  OFFSET 3.37035 -0.52449 3.41376
                  CHANNELS 3 Zrotation Xrotation Yrotation
                  End Site
                  {
                    OFFSET 1.78271 -1.18214 1.43049
                  }
                }
              }
              JOINT lIndex1
              {
                OFFSET 7.75947 0.938293 5.60832
                CHANNELS 3 Zrotation Xrotation Yrotation
                JOINT lIndex2
                {
                  OFFSET 2.54057 -0.884171 1.56538
                  CHANNELS 3 Zrotation Xrotation Yrotation
                  End Site
                  {
                    OFFSET 1.62519 -0.234802 1.16502
                  }
                }
              }
              JOINT lMid1
              {
                OFFSET 8.24714 1.18213 3.41376
                CHANNELS 3 Zrotation Xrotation Yrotation
                JOINT lMid2
                {
                  OFFSET 3.10165 -0.590103 1.0647
                  CHANNELS 3 Zrotation Xrotation Yrotation
                  End Site
                  {
                    OFFSET 2.48547 -0.328903 0.83742
                  }
                }
              }
              JOINT lRing1
              {
                OFFSET 8.82822 0.546677 1.51678
                CHANNELS 3 Zrotation Xrotation Yrotation
                JOINT lRing2
                {
                  OFFSET 2.60934 -0.819778 -0.0198488
                  CHANNELS 3 Zrotation Xrotation Yrotation
                  End Site
                  {
                    OFFSET 2.33842 -0.294052 0.168128
                  }
                }
              }
              JOINT lPinky1
              {
                OFFSET 8.27202 -0.0477905 -0.4584
                CHANNELS 3 Zrotation Xrotation Yrotation
                JOINT lPinky2
                {
                  OFFSET 1.82734 -0.647385 -0.700984
                  CHANNELS 3 Zrotation Xrotation Yrotation
                  End Site
                  {
                    OFFSET 1.69225 -0.51767 -0.607171
                  }
                }
              }
            }
          }
        }
      }
    }
  }
  JOINT rButtock
  {
    OFFSET -8.77824 4.35084 1.2192
    CHANNELS 3 Zrotation Xrotation Yrotation
    JOINT rThigh
    {
      OFFSET 0 -1.70687 -2.19456
      CHANNELS 3 Zrotation Xrotation Yrotation
      JOINT rShin
      {
        OFFSET 0 -36.8199 0.73152
        CHANNELS 3 Zrotation Xrotation Yrotation
        JOINT rFoot
        {
          OFFSET 0.73152 -45.1104 -5.12064
          CHANNELS 3 Zrotation Xrotation Yrotation
          End Site
          {
            OFFSET -1.1221 -3.69964 12.103
          }
        }
      }
    }
  }
  JOINT lButtock
  {
    OFFSET 8.77824 4.35084 1.2192
    CHANNELS 3 Zrotation Xrotation Yrotation
    JOINT lThigh
    {
      OFFSET 0 -1.70687 -2.19456
      CHANNELS 3 Zrotation Xrotation Yrotation
      JOINT lShin
      {
        OFFSET 0 -36.8199 0.73152
        CHANNELS 3 Zrotation Xrotation Yrotation
        JOINT lFoot
        {
          OFFSET -0.73152 -45.1104 -5.12064
          CHANNELS 3 Zrotation Xrotation Yrotation
          End Site
          {
            OFFSET 1.1221 -3.69964 12.103
          }
        }
      }
    }
  }
}
MOTION
Frames:	7
Frame Time:	0.00833333
19.8985 83.5191 -57.7166 5.7844 -3.3493 -3.4365 -7.23988 20.0525 -7.26206 5.98678 -9.48954 -1.92064 -2.9209 10.5517 -6.57516 0.848146 11.8925 -12.8518 -0.0 0.0 0.0 -0.0 0.0 0.0 -1.82415e-13 -9.0645e-14 4.96962e-17 55.3 -11.5441 11.4041 -28.3406 -37.905 80.2434 -0.15985 11.3221 1.61248 -4.82945e-10 -6.53133e-10 -5.99678e-10 -8.37578e-10 -1.12579e-09 -1.03466e-09 -4.82948e-10 -6.53128e-10 -5.99684e-10 7.73091 5.47488 0.417314 -4.82949e-10 -6.53125e-10 -5.99674e-10 2.90554 0.965183 0.102902 -4.82943e-10 -6.53123e-10 -5.99676e-10 10.2786 0.731801 0.0259123 -4.82951e-10 -6.53123e-10 -5.99668e-10 2.22167 -0.733487 -0.20892 -1.82565e-13 -9.06476e-14 -4.96962e-17 -69.3467 24.3575 -1.2011 22.0002 -15.7576 -43.7901 0.0694947 -7.50026 1.06022 8.34581e-10 1.85003e-09 2.56308e-10 1.43969e-09 3.19869e-09 4.50222e-10 8.34577e-10 1.85003e-09 2.56318e-10 -7.73091 5.47488 -0.417314 8.3458e-10 1.85002e-09 2.56305e-10 -2.90554 0.965183 -0.102902 8.34579e-10 1.85004e-09 2.56305e-10 -10.2786 0.731801 -0.0259123 8.34579e-10 1.85004e-09 2.56295e-10 -2.22167 -0.733487 0.20892 -2.03217e-16 0.0 -3.88251e-19 -7.81926 -37.11 -6.21732 -0.562284 49.3915 1.12716 -2.4056 -4.62133 -10.8746 2.03217e-16 0.0 3.88251e-19 -11.3195 -4.7834 -2.40807 -0.008223 28.4791 -0.911681 1.30136 -17.1204 1.99713
19.9166 83.5625 -56.921 5.8864 -3.1812 -3.3278 -7.2352 20.0141 -7.09438 5.94327 -9.53799 -1.86443 -2.86737 10.4154 -6.64722 1.01194 11.9226 -12.9946 -0.0 0.0 0.0 -0.0 0.0 0.0 -1.41655e-13 -7.98346e-14 -2.05812e-14 55.0814 -10.3872 12.0903 -28.4007 -37.1552 78.9265 -0.213792 13.0163 1.86169 -3.9082e-10 -3.05918e-10 -3.32779e-10 -6.75361e-10 -5.30158e-10 -5.74793e-10 -3.90822e-10 -3.05916e-10 -3.32786e-10 7.73091 5.47488 0.417314 -3.90823e-10 -3.05912e-10 -3.32777e-10 2.90554 0.965183 0.102902 -3.90817e-10 -3.05912e-10 -3.32779e-10 10.2786 0.731801 0.0259123 -3.90826e-10 -3.05912e-10 -3.32773e-10 2.22167 -0.733487 -0.20892 -1.41773e-13 -7.98399e-14 -2.07151e-14 -68.8477 24.9026 -2.01619 22.1005 -15.9091 -44.0612 0.0691039 -7.47873 1.05714 7.61838e-10 1.71775e-09 2.81134e-10 1.31404e-09 2.96844e-09 4.91597e-10 7.61836e-10 1.71776e-09 2.81141e-10 -7.73091 5.47488 -0.417314 7.61838e-10 1.71775e-09 2.81132e-10 -2.90554 0.965183 -0.102902 7.61837e-10 1.71777e-09 2.81132e-10 -10.2786 0.731801 -0.0259123 7.61837e-10 1.71777e-09 2.81122e-10 -2.22167 -0.733487 0.20892 -2.03217e-16 0.0 -3.88251e-19 -7.75327 -37.273 -6.0144 -0.491678 47.0744 1.04543 -2.368 -4.22921 -11.2649 2.03217e-16 0.0 3.88251e-19 -11.4362 -3.94148 -2.56099 -0.0172027 27.7552 -0.916531 1.41661 -17.1121 2.35196
19.9151 83.5898 -56.0699 6.0075 -3.0642 -3.3098 -7.28491 19.8957 -7.05653 6.02757 -9.59898 -1.83665 -2.96854 10.4022 -6.66324 1.10687 12.01 -13.0246 -0.0 0.0 0.0 -0.0 0.0 0.0 -4.20772e-14 -4.23359e-14 -5.397e-14 54.7248 -8.96868 12.751 -28.4299 -36.3022 77.5168 -0.269857 14.6169 2.10025 -1.8336e-10 3.96836e-10 2.12315e-10 -3.12022e-10 6.77774e-10 3.65384e-10 -1.8336e-10 3.96833e-10 2.12306e-10 7.73091 5.47488 0.417314 -1.83362e-10 3.96838e-10 2.12313e-10 2.90554 0.965183 0.102902 -1.83356e-10 3.96838e-10 2.1231e-10 10.2786 0.731801 0.0259123 -1.83366e-10 3.96839e-10 2.12315e-10 2.22167 -0.733487 -0.20892 -4.21636e-14 -4.23468e-14 -5.41657e-14 -68.6368 25.2743 -2.56136 22.2019 -16.0638 -44.3368 0.0691885 -7.48324 1.05778 3.91556e-10 1.0182e-09 2.56177e-10 6.74739e-10 1.75653e-09 4.44435e-10 3.91556e-10 1.0182e-09 2.56183e-10 -7.73091 5.47488 -0.417314 3.91557e-10 1.0182e-09 2.56179e-10 -2.90554 0.965183 -0.102902 3.91556e-10 1.01821e-09 2.56177e-10 -10.2786 0.731801 -0.0259123 3.91557e-10 1.01821e-09 2.56167e-10 -2.22167 -0.733487 0.20892 -2.03217e-16 0.0 -3.88251e-19 -7.7057 -37.3707 -5.68057 -0.428955 44.6661 0.966068 -2.28393 -3.60124 -11.7037 2.03217e-16 0.0 3.88251e-19 -11.6218 -3.04077 -2.73569 -0.0261466 26.9835 -0.917562 1.56769 -17.1011 2.81732
19.9099 83.6181 -55.2472 6.2003 -3.0031 -3.2249 -7.35994 19.7489 -7.06648 6.147 -9.64127 -1.82251 -3.11029 10.3783 -6.66031 1.17114 12.1615 -13.0164 -0.0 0.0 0.0 -0.0 0.0 0.0 6.76744e-14 2.31635e-16 -8.29856e-14 54.3409 -7.52931 13.3912 -28.4298 -35.3872 76.0217 -0.329225 16.1269 2.32868 5.40116e-11 1.04319e-09 7.39641e-10 1.02301e-10 1.78907e-09 1.27479e-09 5.40152e-11 1.04318e-09 7.39632e-10 7.73091 5.47488 0.417314 5.40117e-11 1.04318e-09 7.39637e-10 2.90554 0.965183 0.102902 5.40165e-11 1.04318e-09 7.39634e-10 10.2786 0.731801 0.0259123 5.40054e-11 1.04319e-09 7.39637e-10 2.22167 -0.733487 -0.20892 6.76128e-14 2.15458e-16 -8.32446e-14 -68.509 25.6089 -3.0387 22.2964 -16.2092 -44.5965 0.0693408 -7.49168 1.05899 -6.83074e-11 1.23541e-10 2.14285e-10 -1.19234e-10 2.07369e-10 3.67643e-10 -6.83051e-11 1.23546e-10 2.14291e-10 -7.73091 5.47488 -0.417314 -6.83045e-11 1.23546e-10 2.1429e-10 -2.90554 0.965183 -0.102902 -6.83076e-11 1.2355e-10 2.14287e-10 -10.2786 0.731801 -0.0259123 -6.83036e-11 1.23549e-10 2.14278e-10 -2.22167 -0.733487 0.20892 -2.03217e-16 0.0 -3.88251e-19 -7.67884 -37.4025 -5.24793 -0.374041 42.2192 0.891764 -2.19753 -2.96224 -12.217 2.03217e-16 0.0 3.88251e-19 -11.8124 -2.08977 -2.90147 -0.0346639 26.1437 -0.913893 1.70207 -17.0687 3.241
19.9001 83.6635 -54.4701 6.3226 -2.8496 -3.0481 -7.43077 19.6255 -7.04231 6.20893 -9.63362 -1.80722 -3.17873 10.2097 -6.67557 1.24336 12.384 -13.045 -0.0 0.0 0.0 -0.0 0.0 0.0 1.38955e-13 2.62485e-14 -9.04967e-14 54.0512 -6.30722 14.0122 -28.4074 -34.4494 74.437 -0.393274 17.5495 2.54741 2.35873e-10 1.22119e-09 9.53241e-10 4.17473e-10 2.09481e-09 1.64235e-09 2.35879e-10 1.22118e-09 9.53231e-10 7.73091 5.47488 0.417314 2.35874e-10 1.22118e-09 9.53234e-10 2.90554 0.965183 0.102902 2.35879e-10 1.22118e-09 9.53232e-10 10.2786 0.731801 0.0259123 2.35868e-10 1.22119e-09 9.53234e-10 2.22167 -0.733487 -0.20892 1.38905e-13 2.62306e-14 -9.07949e-14 -68.2467 26.039 -3.65559 22.3766 -16.3332 -44.8195 0.069153 -7.48194 1.0576 -4.09792e-10 -5.94023e-10 1.88305e-10 -7.08886e-10 -1.03463e-09 3.20131e-10 -4.09789e-10 -5.94017e-10 1.88311e-10 -7.73091 5.47488 -0.417314 -4.09788e-10 -5.94015e-10 1.88311e-10 -2.90554 0.965183 -0.102902 -4.09793e-10 -5.94016e-10 1.88308e-10 -10.2786 0.731801 -0.0259123 -4.09787e-10 -5.94017e-10 1.88298e-10 -2.22167 -0.733487 0.20892 -2.03217e-16 0.0 -3.88251e-19 -7.676 -37.368 -4.74922 -0.32588 39.7864 0.824391 -2.15939 -2.53566 -12.8291 2.03217e-16 0.0 3.88251e-19 -11.9462 -1.09689 -3.02775 -0.0422682 25.215 -0.904704 1.767 -16.9971 3.47076
19.8311 83.7331 -53.7575 6.278 -2.4505 -2.8275 -7.50228 19.5401 -6.96565 6.18351 -9.54173 -1.79035 -3.12851 9.76974 -6.70969 1.30618 12.765 -13.1113 -0.0 0.0 0.0 -0.0 0.0 0.0 1.51851e-13 2.81783e-14 -6.18015e-14 53.898 -5.36492 14.6324 -28.3549 -33.4477 72.7533 -0.459161 18.8754 2.75436 3.55436e-10 6.09294e-10 6.54246e-10 6.19465e-10 1.04189e-09 1.12435e-09 3.55443e-10 6.09281e-10 6.54236e-10 7.73091 5.47488 0.417314 3.55436e-10 6.09289e-10 6.5424e-10 2.90554 0.965183 0.102902 3.55442e-10 6.09288e-10 6.54239e-10 10.2786 0.731801 0.0259123 3.55432e-10 6.0929e-10 6.54243e-10 2.22167 -0.733487 -0.20892 1.51794e-13 2.81648e-14 -6.21024e-14 -67.7611 26.5959 -4.50599 22.4418 -16.4349 -45.0018 0.069023 -7.47207 1.05619 -5.91746e-10 -1.09258e-09 1.89931e-10 -1.02328e-09 -1.8966e-09 3.23041e-10 -5.91744e-10 -1.09257e-09 1.89937e-10 -7.73091 5.47488 -0.417314 -5.91742e-10 -1.09257e-09 1.89936e-10 -2.90554 0.965183 -0.102902 -5.91749e-10 -1.09257e-09 1.89933e-10 -10.2786 0.731801 -0.0259123 -5.91741e-10 -1.09257e-09 1.89923e-10 -2.22167 -0.733487 0.20892 -2.03217e-16 0.0 -3.88251e-19 -7.73213 -37.2553 -4.23136 -0.282403 37.3437 0.761113 -2.17558 -2.33285 -13.535 2.03217e-16 0.0 3.88251e-19 -12.023 -0.0590517 -3.09134 -0.0483895 24.1733 -0.888978 1.73819 -16.885 3.43556
19.7754 83.7995 -52.9272 6.3007 -2.1505 -2.751 -7.58596 19.4647 -6.87904 6.12179 -9.39092 -1.77862 -3.0259 9.16025 -6.74644 1.349 13.2722 -13.1825 -0.0 0.0 0.0 -0.0 0.0 0.0 1.34619e-13 1.81418e-14 -9.41431e-15 53.8232 -4.57409 15.2439 -28.2518 -32.3486 70.996 -0.523692 20.1063 2.94915 4.52928e-10 -5.02231e-10 4.04831e-11 7.79682e-10 -8.70224e-10 6.24951e-11 4.52936e-10 -5.02243e-10 4.04749e-11 7.73091 5.47488 0.417314 4.52927e-10 -5.02234e-10 4.04795e-11 2.90554 0.965183 0.102902 4.52934e-10 -5.02234e-10 4.04801e-11 10.2786 0.731801 0.0259123 4.52927e-10 -5.02232e-10 4.04871e-11 2.22167 -0.733487 -0.20892 1.34541e-13 1.81365e-14 -9.69697e-15 -67.1681 27.2063 -5.47132 22.4963 -16.5209 -45.1536 0.0689992 -7.46588 1.05532 -7.20313e-10 -1.55151e-09 2.00668e-10 -1.24561e-09 -2.68922e-09 3.43144e-10 -7.20313e-10 -1.55151e-09 2.00673e-10 -7.73091 5.47488 -0.417314 -7.2031e-10 -1.55151e-09 2.00669e-10 -2.90554 0.965183 -0.102902 -7.20319e-10 -1.55151e-09 2.00667e-10 -10.2786 0.731801 -0.0259123 -7.20309e-10 -1.55151e-09 2.00656e-10 -2.22167 -0.733487 0.20892 -2.03217e-16 0.0 -3.88251e-19 -7.83858 -37.0671 -3.66685 -0.243822 34.8757 0.700844 -2.22652 -2.24953 -14.3251 2.03217e-16 0.0 3.88251e-19 -12.0736 1.02659 -3.11399 -0.0527559 23.0357 -0.867822 1.64833 -16.741 3.22711
